<svg width="30" height="30" viewBox="0 0 30 30" fill="none" xmlns="http://www.w3.org/2000/svg">
<path fill-rule="evenodd" clip-rule="evenodd" d="M15 1.25C15.6904 1.25 16.25 1.80964 16.25 2.5V7.5C16.25 8.19036 15.6904 8.75 15 8.75C14.3096 8.75 13.75 8.19036 13.75 7.5V2.5C13.75 1.80964 14.3096 1.25 15 1.25Z" fill="black"/>
<path fill-rule="evenodd" clip-rule="evenodd" d="M15 21.25C15.6904 21.25 16.25 21.8096 16.25 22.5V27.5C16.25 28.1904 15.6904 28.75 15 28.75C14.3096 28.75 13.75 28.1904 13.75 27.5V22.5C13.75 21.8096 14.3096 21.25 15 21.25Z" fill="black"/>
<path fill-rule="evenodd" clip-rule="evenodd" d="M5.27861 5.27861C5.76676 4.79045 6.55822 4.79045 7.04637 5.27861L10.5839 8.81611C11.072 9.30426 11.072 10.0957 10.5839 10.5839C10.0957 11.072 9.30426 11.072 8.81611 10.5839L5.27861 7.04637C4.79045 6.55822 4.79045 5.76676 5.27861 5.27861Z" fill="black"/>
<path fill-rule="evenodd" clip-rule="evenodd" d="M19.4161 19.4161C19.9043 18.9279 20.6957 18.9279 21.1839 19.4161L24.7214 22.9536C25.2095 23.4418 25.2095 24.2332 24.7214 24.7214C24.2332 25.2095 23.4418 25.2095 22.9536 24.7214L19.4161 21.1839C18.9279 20.6957 18.9279 19.9043 19.4161 19.4161Z" fill="black"/>
<path fill-rule="evenodd" clip-rule="evenodd" d="M1.25 15C1.25 14.3096 1.80964 13.75 2.5 13.75H7.5C8.19036 13.75 8.75 14.3096 8.75 15C8.75 15.6904 8.19036 16.25 7.5 16.25H2.5C1.80964 16.25 1.25 15.6904 1.25 15Z" fill="black"/>
<path fill-rule="evenodd" clip-rule="evenodd" d="M21.25 15C21.25 14.3096 21.8096 13.75 22.5 13.75H27.5C28.1904 13.75 28.75 14.3096 28.75 15C28.75 15.6904 28.1904 16.25 27.5 16.25H22.5C21.8096 16.25 21.25 15.6904 21.25 15Z" fill="black"/>
<path fill-rule="evenodd" clip-rule="evenodd" d="M10.5839 19.4161C11.072 19.9043 11.072 20.6957 10.5839 21.1839L7.04637 24.7214C6.55822 25.2095 5.76676 25.2095 5.27861 24.7214C4.79045 24.2332 4.79045 23.4418 5.27861 22.9536L8.81611 19.4161C9.30426 18.9279 10.0957 18.9279 10.5839 19.4161Z" fill="black"/>
<path fill-rule="evenodd" clip-rule="evenodd" d="M24.7214 5.27861C25.2095 5.76676 25.2095 6.55822 24.7214 7.04637L21.1839 10.5839C20.6957 11.072 19.9043 11.072 19.4161 10.5839C18.9279 10.0957 18.9279 9.30426 19.4161 8.81611L22.9536 5.27861C23.4418 4.79045 24.2332 4.79045 24.7214 5.27861Z" fill="black"/>
</svg>
